<svg data-bbox="10.006 19.497 180.148 159.716" viewBox="0 0 200 200" height="200" width="200" xmlns="http://www.w3.org/2000/svg" data-type="color">
    <g>
        <path d="M85.214 63.948c-5.464-5.818-16.071-15.354-32.143-10.99C37.321 57.16 32.5 70.897 30.893 78.655c-2.25 11.798 1.125 23.758 6.589 25.051 11.25 2.586 18.964-8.081 26.357-10.182 7.554-1.939 19.446 3.394 27.964-4.525 4.34-4.041.483-17.617-6.589-25.051" fill="#BA8556" data-color="1"/>
        <path d="M80.554 51.826c4.179 1.455 9.804-3.717 11.893-9.374 2.089-5.818-.161-10.02-4.339-11.475-4.018-1.616-8.518.162-10.607 5.98-2.09 5.657-.965 13.253 3.053 14.869" fill="#BA8556" data-color="1"/>
        <path d="M28.804 65.725c-2.732 3.394-10.286 1.778-14.946-2.263-4.661-3.879-4.821-8.727-1.929-11.96s7.554-4.04 12.214-.162c4.5 3.88 7.393 10.992 4.661 14.385" fill="#BA8556" data-color="1"/>
        <path d="M61.911 45.2c4.982-.323 8.679-8.404 8.357-15.354-.321-7.111-4.661-10.505-9.643-10.343-4.982.323-9 4.202-8.518 11.313.322 7.111 4.822 14.707 9.804 14.384" fill="#BA8556" data-color="1"/>
        <path d="M41.661 50.695c-4.5 2.263-11.732-2.747-14.946-9.212-3.214-6.303-1.286-11.475 3.214-13.737s9.804-.97 13.018 5.495c3.374 6.303 3.214 15.192-1.286 17.454" fill="#BA8556" data-color="1"/>
        <path d="M169.429 153.806c-1.929-7.919-6.429-21.333-22.339-25.697-15.911-4.364-26.839 5.01-32.143 10.99-7.875 9.05-10.929 21.01-6.589 25.051 8.518 7.758 20.411 2.424 27.964 4.525 7.554 1.939 15.268 12.606 26.357 10.182 5.625-1.293 9-15.031 6.75-25.051" fill="#BA8556" data-color="1"/>
        <path d="M171.357 140.877c2.732 3.394 10.286 1.778 14.946-2.263 4.661-3.879 4.821-8.727 1.929-12.121-2.732-3.394-7.554-4.04-12.214-.162-4.5 4.041-7.393 11.152-4.661 14.546" fill="#BA8556" data-color="1"/>
        <path d="M119.607 126.978c-4.179 1.455-9.804-3.717-11.893-9.374-2.089-5.818.161-10.02 4.339-11.475 4.179-1.455 8.518.323 10.607 5.98 1.929 5.657.965 13.253-3.053 14.869" fill="#BA8556" data-color="1"/>
        <path d="M158.5 125.847c4.5 2.263 11.732-2.747 14.946-9.212 3.214-6.303 1.286-11.475-3.214-13.737-4.5-2.263-9.804-.97-13.018 5.495-3.375 6.302-3.214 15.191 1.286 17.454" fill="#BA8556" data-color="1"/>
        <path d="M138.25 120.352c-4.982-.323-8.679-8.404-8.357-15.354.321-7.111 4.661-10.505 9.643-10.343 4.982.323 9 4.202 8.518 11.313-.322 7.111-4.822 14.707-9.804 14.384" fill="#BA8556" data-color="1"/>
    </g>
</svg>
