<svg width="85" height="29" viewBox="0 0 85 29" xmlns="http://www.w3.org/2000/svg" xmlns:xlink="http://www.w3.org/1999/xlink"><g fill="none" fill-rule="evenodd"><path d="M81.975 6.147c-1.796-.483-3.03.17-3.874.999-.156-1.245-.993-2.658-2.056-2.693-.58-.018-1.018-.028-1.673 1.652-.465 1.19-.991 2.9-1.522 4.943-.935 3.599-1.38 9.065-1.474 10.445-.137 2.01 4.532 2.476 4.382.712-.248-2.904.255-6.833 1.088-9.463.473-1.492 1.651-3.014 2.75-3.423-.425.377-.557 1.157-.559 1.527-.01 1.417.425 2.512 2.181 2.92 1.444.335 3.339-.58 3.5-3.723.086-1.698-1.22-3.488-2.743-3.896M2.715 8.799c-.19-1.15.847-1.73 1.38-1.815 1.388-.232 2.459 1.492 2.671 2.236.16.56.034 1.121-.343 1.543a1.814 1.814 0 0 1-1.075.57c-.43.067-1.028-.154-1.522-.562A3.223 3.223 0 0 1 2.715 8.8" fill="#FFF"/><g transform="translate(0 11.51)"><mask id="a" fill="#fff"><use xlink:href="#path-1"/></mask><path d="M.308 2.533C-.387 1.609.252.663.678.36c1.104-.791 2.833.26 3.36.818.397.423.546.966.41 1.495a1.69 1.69 0 0 1-.675.955c-.346.24-.969.302-1.587.155A3.323 3.323 0 0 1 .308 2.533" fill="#FFF" mask="url(#a)"/></g><path d="M11.622 6.68c-.28-1.164-1.456-1.345-1.978-1.236-1.36.276-1.66 2.302-1.562 3.087.075.592.41 1.082.922 1.349.368.19.796.246 1.208.158.42-.09.88-.514 1.17-1.08.346-.671.432-1.477.24-2.278M16.396 9.115c.013-1.186-1.118-1.617-1.667-1.626-1.43-.03-2.24 1.865-2.338 2.645-.073.59.139 1.136.584 1.505.32.265.734.412 1.168.416.443.005 1.01-.305 1.443-.789a3.263 3.263 0 0 0 .81-2.15M15.493 17.134c.065.912-.122 1.875-.829 2.489-.824.716-1.834.596-2.843.409a1.932 1.932 0 0 0-.936.06 1.87 1.87 0 0 0-.8.474c-.71.717-1.407 1.458-2.508 1.335-.945-.106-1.98-.838-2.304-1.701-1.276-3.403 1.384-7.973 2.7-8.99 1.352.035 7.241 2.022 7.52 5.924M39.807 4.503c-4.34.596-6.127 8.667-6.15 11.875-.017 2.423.818 4.528 2.294 5.8 1.061.914 2.368 1.302 3.683 1.103 1.343-.204 2.948-1.742 4.09-3.916 1.356-2.583 1.962-5.806 1.703-9.115-.378-4.808-3.955-5.988-5.62-5.747m2.267 7.833c-.18 3.22-1.492 7.384-2.665 7.746-.77.266-1.308-1.583-1.317-3.343-.021-4.136 1.872-8.452 2.992-8.379.924.06 1.087 2.251.99 3.976M67.653 18.508c-.86.554-1.136 1.7-2.674 1.571-1.555-.13-1.867-1.82-1.856-3.05a8.848 8.848 0 0 1 .113-1.303s2.102.05 4.147-.577c2.317-.708 3.333-1.7 3.948-3.43.685-1.928.59-4.82-1.63-6.42-1.528-1.1-4.278-1.237-7.194 1.844-2.056 2.172-3.264 5.269-3.41 8.845-.164 4.005 2.738 7.13 4.989 7.253 2.47.135 3.855-.894 5.027-2.875.662-1.119-.18-2.68-1.46-1.858m1.079-8.529c-.276 1.698-2.535 3.136-4.954 2.944 1.018-2.938 2.659-4.327 3.424-4.608.637-.233 1.695.645 1.53 1.664M58.733 10.549c-.925 7.199-5.215 11.87-8.338 12.68-.784.204-5.16-2.694-3.036-16.704.348-2.297 1.738-2.232 3.234-1.485 1.464.731 1.85 2.193 1.614 3.496-.246 1.35-.783 3.19-.91 4.38-.461 4.336.397 6.234.397 6.234s2.802-2.418 3.574-9.38c.255-2.293-.075-3.92.735-4.18 1.44-.462 3.149 1.705 2.73 4.959" fill="#FFF"/><path d="M25.883 4.334c2.295-.515 3.426.33 3.532 2.12.18 3.026-2.806 7.534-6.887 8.054.676-2.445 1.914-6.365 3.355-10.174M36.16 24.217c-.185-.22-.477-.345-.886-.289-.825.244-2.286.595-3.433-.14-1.333-.854-6.675-6.875-6.675-6.875 2.69-.733 5.549-2.912 6.555-4.064.352-.38.68-.785.974-1.214l.03-.043c1.061-1.564 1.693-3.45 1.561-5.661-.281-4.732-4.062-7.538-14.742-3.79-2.914 1.023-.959 4.462.444 3.893.32-.13.84-.38 1.06-.48-1.28 4.552-5.34 16.86-5.108 20.63.165 2.77 3.541 2.96 4.29 2.547.963-.529.175-2.93 1.577-9.697.017-.08 3.504 4.728 5.239 6.875 1.222 1.513 3.484 2.893 5.366 2.515 2.279-.428 3.296-1.523 3.841-2.7.23-.495.219-1.136-.093-1.507" fill="#FFF"/></g></svg>