<svg width="68" height="113" viewBox="0 0 68 113" fill="none" xmlns="http://www.w3.org/2000/svg">
<path fill-rule="evenodd" clip-rule="evenodd" d="M7.08295 0.67154C-2.26105 2.57354 -1.18905 18.4945 8.47995 21.4285C10.898 22.1625 12.452 21.1215 10.105 20.3405C2.72295 17.8835 0.626953 6.11554 7.13395 3.65854C9.63495 2.71354 14.026 4.81754 15.322 7.58254C16.419 9.92154 16.755 11.1745 16.912 13.4995C17.073 15.8965 17.345 16.2845 17.984 15.0305C18.598 13.8275 18.702 13.8375 19.781 15.2125C21.179 16.9955 23.199 18.2785 24.077 17.9415C24.33 17.8445 24.236 17.1665 23.97 17.1665C23.786 17.1665 22.259 15.6155 21.707 14.8695C18.865 11.0255 21.46 3.49954 25.628 3.49954C29.197 3.49954 31.161 7.74354 30.4 13.8095C30.289 14.6945 30.291 14.7015 30.685 14.5805C31.184 14.4275 31.498 14.1815 31.506 13.9375C31.526 13.2475 32.5 12.8215 32.5 13.5025C32.5 14.7445 33.802 16.9995 34.518 16.9995C34.979 16.9995 35.037 16.7185 34.862 15.3145C34.201 9.99154 39.874 4.98654 42.618 8.47054C44.082 10.3285 44.019 12.3295 42.394 15.6035C41.538 17.3265 41.546 17.5005 42.463 17.1795C46.069 15.9185 47.341 8.62654 44.384 6.16554C40.96 3.31454 35.825 4.65354 33.64 8.96754L33.196 9.84354L33.025 9.29654C32.931 8.99554 32.731 8.12354 32.58 7.35854C31.029 -0.49546 22.481 -1.94146 19.059 5.07054C18.66 5.88954 18.333 6.68054 18.333 6.82954C18.333 6.97754 18.243 7.18954 18.133 7.29954C17.887 7.54554 17.5 7.56154 17.5 7.32554C17.5 7.22954 17.163 6.56554 16.75 5.85154C14.598 2.11854 10.571 -0.0384598 7.08295 0.67154ZM50 12.1075C48.858 12.4795 47.003 13.5195 46.86 13.8685C46.829 13.9445 46.585 14.1195 46.318 14.2575C46.052 14.3955 45.833 14.6135 45.833 14.7415C45.833 14.8705 45.74 15.0775 45.625 15.2015C44.701 16.2035 43.937 18.7665 44.178 20.0535C44.333 20.8815 44.934 22.3335 45.119 22.3305C45.494 22.3225 45.698 21.9555 45.825 21.0565C46.357 17.2975 48.51 15.0115 51.529 15.0035C54.62 14.9945 55.109 18.7475 52.479 22.2845C50.917 24.3835 52.725 24.3315 54.788 22.2175C58.785 18.1235 56.768 11.9545 51.452 12.0125C50.791 12.0195 50.137 12.0625 50 12.1075ZM22.667 21.2745C13.701 22.0795 7.07295 28.3945 6.59995 36.5825C6.41095 39.8665 6.93495 42.5465 8.49095 46.2495C9.37495 48.3535 11.72 52.5595 12.257 53.0055C12.391 53.1165 12.5 53.2745 12.5 53.3585C12.5 53.4415 12.862 53.9755 13.305 54.5455C15.178 56.9605 15.523 57.4795 16.313 59.0735C17.762 61.9975 18.271 64.8515 17.84 67.6265C17.684 68.6285 17.679 69.0455 17.822 69.3115C18.093 69.8185 18.305 69.7495 18.405 69.1245C18.452 68.8265 18.605 67.8755 18.745 67.0115C19.321 63.4605 18.533 58.7685 17.095 57.1795C16.951 57.0205 16.833 56.8425 16.833 56.7835C16.833 56.7245 16.383 56.0035 15.833 55.1795C15.283 54.3565 14.833 53.6125 14.833 53.5275C14.833 53.4435 14.727 53.2855 14.598 53.1785C14.182 52.8335 11.769 48.4625 11.232 47.0825C10.946 46.3495 10.547 45.3745 10.344 44.9165C7.16795 37.7435 10.511 28.5135 17.205 25.9695C20.77 24.6155 27.057 24.0145 29.583 24.7865C29.95 24.8985 31.112 25.2275 32.167 25.5165C39.308 27.4745 44.337 31.1985 47.065 36.5485C48.47 39.3045 48.78 40.3315 48.208 40.3345C43.879 40.3615 42.166 40.9485 39.996 43.1465C38.473 44.6885 38.262 45.0505 33.911 53.5825C32.883 55.5995 31.759 57.7745 31.415 58.4165C27.866 65.0295 27.132 67.3335 27.668 70.1745C27.941 71.6215 27.801 71.9795 26.718 72.5995C26.277 72.8515 25.279 73.4685 24.5 73.9705C23.145 74.8435 22.565 75.2115 21.083 76.1425C20.342 76.6085 18.75 77.7615 15.75 80.0045C12.83 82.1875 8.96095 86.1565 8.28195 87.6665C8.17895 87.8955 7.92595 88.3115 7.71995 88.5915C7.03995 89.5125 5.67695 92.5785 5.31195 94.0095C4.62595 96.6925 4.95595 102.497 5.84495 103.408C5.92995 103.495 5.99995 103.677 5.99995 103.811C5.99995 104.6 8.11695 107.387 9.74495 108.741C17.47 115.163 29.28 112.141 36.824 101.811C37.384 101.044 37.991 100.242 38.171 100.028C38.352 99.8125 38.5 99.5555 38.5 99.4545C38.5 99.3535 38.644 99.1165 38.82 98.9265C39.161 98.5595 40.229 96.7885 41.739 94.0825C42.251 93.1665 42.776 92.2285 42.907 91.9995C43.26 91.3775 44.54 88.7855 45.333 87.0825C49.402 78.3585 49.414 78.2215 46.14 78.0415C44.135 77.9305 44.175 77.9015 43.18 80.2605C41.451 84.3575 38.225 90.7935 36.232 94.1195C32.027 101.138 27.966 105.094 23.323 106.694C20.426 107.692 15.987 107.323 13.795 105.903C13.453 105.681 13.113 105.5 13.038 105.5C12.825 105.5 11.597 104.159 11.054 103.333C8.96095 100.148 9.33495 93.6235 11.771 90.8195C11.897 90.6745 12 90.5035 12 90.4375C12 90.3725 12.319 89.8975 12.708 89.3835C13.098 88.8695 13.649 88.1415 13.933 87.7655C15.154 86.1495 18.527 83.3345 22.542 80.5825C24.681 79.1165 24.552 79.2065 27.5 77.0915C29.882 75.3815 30.227 75.2915 31.267 76.1115C32.345 76.9605 33.833 77.6155 35.167 77.8275C36.498 78.0385 46.758 77.8135 49.667 77.5095C50.446 77.4275 52.996 77.2755 55.333 77.1705C57.671 77.0655 59.655 76.9095 59.742 76.8235C59.829 76.7365 60.071 76.6665 60.28 76.6665C61.609 76.6665 64.797 74.4205 65.96 72.6665C67.405 70.4865 67.88 67.0625 67.099 64.4615C66.901 63.8045 66.847 63.2715 66.925 62.7535C67.529 58.7225 62.94 56.4925 60.406 59.5845C58.919 61.3995 59.698 64.5405 61.81 65.2415C63.052 65.6545 63.251 65.9635 63.245 67.4755C63.232 70.6265 61.179 72.5765 57.593 72.8425C54.719 73.0555 50.833 73.1665 50.835 73.0355C50.838 72.8785 51.395 70.7355 51.841 69.1665C52.193 67.9285 52.472 66.7635 52.919 64.6665C53.046 64.0705 53.275 63.0575 53.426 62.4165C53.88 60.5025 54.5 55.1885 54.5 53.2175C54.5 52.1305 54.19 51.6665 53.463 51.6665C53.3 51.6665 53.167 51.5995 53.167 51.5185C53.167 51.4365 52.896 51.3195 52.564 51.2565C51.85 51.1225 51.04 50.4955 51.594 50.5045C51.771 50.5075 52.062 50.6205 52.24 50.7545C53.137 51.4325 55.599 50.9005 56.6 49.8115C58.587 47.6515 57.703 44.7975 54.696 43.6625C53.762 43.3105 52.025 42.0545 52.009 41.7205C52.004 41.6125 51.869 41.4835 51.708 41.4335C51.548 41.3835 51.691 41.3725 52.027 41.4085C53.331 41.5485 53.341 41.4675 52.429 38.2035C52.139 37.1645 50.327 33.5095 49.686 32.6695C49.44 32.3465 49.029 31.7705 48.773 31.3885C46.689 28.2815 38.962 23.2495 34.583 22.1485C34.217 22.0555 33.317 21.8265 32.583 21.6385C31.274 21.3025 24.946 21.0705 22.667 21.2745ZM57.25 22.3145C53.997 23.1685 51.263 27.5905 52.549 29.9165C53.531 31.6915 54.333 31.8965 54.333 30.3715C54.333 27.7715 54.873 26.6935 56.68 25.6855C59.731 23.9825 62.579 25.5095 61.589 28.3165C61.33 29.0515 59.579 31.4995 59.313 31.4995C59.02 31.4995 58.853 32.2375 59.112 32.3875C60.864 33.4025 64.25 29.7965 64.25 26.9165C64.25 23.3735 61.101 21.3035 57.25 22.3145ZM48.779 44.9865C50.005 45.5665 50.167 45.8215 50.167 47.1835C50.167 48.0325 50.259 48.3865 50.672 49.1185C51.2 50.0535 51.207 50.3555 50.697 50.2225C50.169 50.0845 50.042 50.5245 49.944 52.8325C49.797 56.2975 49.329 59.6575 48.446 63.5825C48.219 64.5915 47.959 65.7535 47.869 66.1665C47.573 67.5155 46.867 70.0615 46.505 71.0825C46.275 71.7315 46.185 72.2735 46.25 72.6255C46.388 73.3845 46.255 73.4145 41.558 73.6675C35.108 74.0145 33.771 73.6135 32.373 70.9165C31.243 68.7345 31.505 67.4695 34.15 62.3325C35.26 60.1785 37.03 56.7285 38.083 54.6665C42.472 46.0765 42.277 46.4045 43.476 45.5905C45.21 44.4105 47.106 44.1955 48.779 44.9865Z" fill="#55A0CA"/>
</svg>
